<svg width="892" height="606" viewBox="0 0 892 606" fill="none" xmlns="http://www.w3.org/2000/svg">
<style>
  :root { color: #262626; }
  @media (prefers-color-scheme: dark) {
    :root { color: #FAF8F5; }
  }
</style>
<path transform="translate(44.6 30.3) scale(0.9)" d="M392.119 323.865V218.745L592.739 377.121L791.179 213.529L791.909 603.924C792.639 605.744 797.879 605.864 842.159 605.624H891.549V0.534287C891.549 0.322236 891.302 0.206492 891.139 0.342371L592.739 249.405C592.129 249.405 315.359 22.51 287.499 0V223.245C286.889 424.345 286.769 434.084 284.579 441.624C277.039 467.904 261.219 486.884 237.129 498.684C230.439 502.094 221.549 505.624 217.539 506.714C205.859 509.884 186.509 510.364 173.739 507.934C141.859 501.974 119.229 485.674 104.999 458.544L98.7992 446.504L0 465.001C0 483.861 16.5392 521.444 39.0492 544.564C74.2092 580.584 117.399 599.434 174.339 603.574C241.619 608.434 300.509 588.854 342.359 547.484C356.709 533.244 365.469 521.564 373.259 506.114C383.599 485.554 388.829 466.704 390.899 442.854C391.509 435.064 392.119 382.265 392.119 323.865Z" fill="currentColor"/>
</svg>
